<svg width="18" height="18" viewBox="0 0 18 18" fill="none" xmlns="http://www.w3.org/2000/svg">
<circle cx="9" cy="9" r="9" transform="rotate(-180 9 9)" fill="url(#paint0_linear)"/>
<circle cx="8.99999" cy="9" r="7.54839" fill="url(#paint1_linear)"/>
<g clip-path="url(#clip0)">
<path d="M6.05728 9.6834C6.03414 9.6664 6.00635 9.6569 5.97764 9.65616C5.94893 9.65542 5.92069 9.6635 5.89671 9.67929C5.87272 9.69508 5.85415 9.71783 5.84348 9.74449C5.83281 9.77115 5.83056 9.80044 5.83703 9.82842C6.14904 11.2067 7.38355 12.2389 8.85484 12.2389C9.16729 12.239 9.47793 12.1916 9.77611 12.0983C9.80363 12.0898 9.82788 12.0731 9.84559 12.0504C9.86329 12.0276 9.8736 12.0001 9.87511 11.9713C9.87663 11.9425 9.86928 11.914 9.85406 11.8896C9.83883 11.8651 9.81647 11.8459 9.79 11.8346C9.13112 11.5442 8.48867 11.2179 7.86555 10.8571C7.24192 10.499 6.63827 10.1072 6.05728 9.6834ZM13.0159 10.6131C12.9423 10.515 12.8558 10.412 12.7575 10.305C12.7254 10.2696 12.6847 10.2431 12.6394 10.228C12.5941 10.2129 12.5457 10.2097 12.4987 10.2188C12.4518 10.2279 12.4081 10.2488 12.3716 10.2797C12.3352 10.3106 12.3073 10.3504 12.2907 10.3951C12.2907 10.398 12.2887 10.4006 12.2877 10.4034C12.2702 10.451 12.266 10.5025 12.2758 10.5523C12.2856 10.6021 12.3088 10.6482 12.343 10.6857C12.7428 11.1252 12.8075 11.3626 12.7909 11.4127C12.7558 11.4519 12.4912 11.5338 11.7688 11.3507C11.6653 11.3244 11.5521 11.2924 11.4292 11.2547C11.3499 11.2303 11.2691 11.204 11.1868 11.1758C11.3162 11.0274 11.4312 10.867 11.5302 10.6968C11.5332 10.6917 11.5364 10.6866 11.5394 10.6813C11.8077 10.2138 11.9488 9.68418 11.9486 9.14516C11.9487 9.0336 11.9428 8.92211 11.931 8.81117C11.7628 7.26131 10.4474 6.05141 8.85484 6.05141C8.17911 6.05103 7.52197 6.27269 6.98453 6.68229C6.65879 6.93021 6.38505 7.23985 6.17893 7.59354C6.17611 7.59863 6.17295 7.60373 6.16996 7.60883C6.072 7.77949 5.99059 7.95914 5.92685 8.14531C5.86135 8.08824 5.79812 8.03158 5.73719 7.97533C5.64244 7.88744 5.55842 7.80606 5.48371 7.72924C4.96393 7.19733 4.90205 6.9275 4.9184 6.87758C4.95355 6.83838 5.19156 6.7744 5.77305 6.90061C5.82276 6.91154 5.87452 6.90862 5.92269 6.89216C5.97086 6.8757 6.01358 6.84634 6.04621 6.80727L6.05254 6.79953C6.08287 6.76309 6.10332 6.71946 6.11194 6.67283C6.12055 6.62621 6.11704 6.57815 6.10174 6.53327C6.08644 6.48839 6.05986 6.4482 6.02456 6.41655C5.98926 6.3849 5.94641 6.36285 5.90014 6.35252C5.76212 6.32125 5.62261 6.29702 5.48213 6.27992C4.94213 6.21787 4.58863 6.32422 4.43131 6.59633C4.37435 6.69442 4.31969 6.86158 4.3835 7.09906C4.47789 7.45168 4.81434 7.87953 5.29053 8.32777C5.44223 8.47068 5.60799 8.61553 5.78482 8.7609C5.9135 8.86637 6.0485 8.97289 6.18736 9.07871C6.28006 9.14902 6.37469 9.21934 6.47125 9.28965C6.56781 9.35996 6.66566 9.42899 6.7648 9.49672C7.21146 9.80627 7.68344 10.1035 8.14627 10.3702C8.31432 10.467 8.48213 10.5607 8.64971 10.6514C8.81728 10.7421 8.98352 10.8289 9.1484 10.9118C9.53336 11.1051 9.91041 11.2795 10.2709 11.4291C10.4255 11.4933 10.5767 11.5528 10.7246 11.6077C10.9336 11.6854 11.1354 11.7538 11.3277 11.8114L11.3471 11.8172C11.7994 11.9519 12.1806 12.0227 12.4805 12.0281H12.5111C12.8915 12.0281 13.1492 11.916 13.2771 11.6942C13.4369 11.4196 13.3489 11.0557 13.0159 10.6131Z" fill="#E8E8E8"/>
<path d="M6.05725 9.6834C6.03411 9.6664 6.00632 9.65689 5.97761 9.65616C5.94891 9.65542 5.92066 9.66349 5.89668 9.67928C5.87269 9.69508 5.85412 9.71783 5.84345 9.74449C5.83278 9.77115 5.83053 9.80044 5.837 9.82842C6.14901 11.2067 7.38352 12.2389 8.85481 12.2389C9.16726 12.239 9.4779 12.1916 9.77608 12.0983C9.8036 12.0898 9.82785 12.0731 9.84556 12.0504C9.86326 12.0276 9.87357 12 9.87508 11.9713C9.8766 11.9425 9.86925 11.914 9.85403 11.8896C9.83881 11.8651 9.81645 11.8459 9.78997 11.8346C9.13109 11.5442 8.48864 11.2179 7.86552 10.8571C7.24189 10.499 6.63824 10.1072 6.05725 9.6834ZM13.0159 10.6131C12.9423 10.515 12.8558 10.412 12.7575 10.305C12.7254 10.2696 12.6847 10.2431 12.6394 10.228C12.5941 10.2129 12.5456 10.2097 12.4987 10.2188C12.4518 10.2279 12.408 10.2488 12.3716 10.2797C12.3351 10.3106 12.3073 10.3504 12.2906 10.3951C12.2906 10.3979 12.2887 10.4006 12.2876 10.4034C12.2701 10.451 12.266 10.5025 12.2758 10.5523C12.2856 10.6021 12.3088 10.6482 12.343 10.6857C12.7427 11.1252 12.8074 11.3626 12.7909 11.4127C12.7558 11.4519 12.4912 11.5338 11.7687 11.3507C11.6653 11.3244 11.5521 11.2924 11.4291 11.2547C11.3499 11.2303 11.2691 11.204 11.1867 11.1758C11.3161 11.0274 11.4312 10.867 11.5302 10.6968C11.5332 10.6917 11.5364 10.6866 11.5393 10.6813C11.8077 10.2138 11.9488 9.68417 11.9486 9.14515C11.9486 9.03359 11.9428 8.92211 11.931 8.81117C11.7628 7.26131 10.4474 6.0514 8.85481 6.0514C8.17908 6.05102 7.52194 6.27268 6.9845 6.68228C6.65876 6.93021 6.38502 7.23985 6.1789 7.59353C6.17608 7.59863 6.17292 7.60373 6.16993 7.60883C6.07197 7.77949 5.99056 7.95914 5.92683 8.14531C5.86132 8.08824 5.79809 8.03158 5.73716 7.97533C5.64241 7.88744 5.55839 7.80605 5.48368 7.72924C4.9639 7.19732 4.90202 6.9275 4.91837 6.87758C4.95352 6.83838 5.19153 6.77439 5.77302 6.9006C5.82273 6.91154 5.87449 6.90861 5.92266 6.89215C5.97083 6.8757 6.01355 6.84633 6.04618 6.80726L6.05251 6.79953C6.08284 6.76308 6.10329 6.71945 6.11191 6.67283C6.12052 6.6262 6.11701 6.57815 6.10171 6.53327C6.08641 6.48839 6.05983 6.4482 6.02453 6.41655C5.98923 6.38489 5.94638 6.36285 5.90011 6.35252C5.76209 6.32125 5.62258 6.29701 5.4821 6.27992C4.9421 6.21787 4.5886 6.32422 4.43128 6.59633C4.37432 6.69441 4.31966 6.86158 4.38347 7.09906C4.47786 7.45168 4.81431 7.87953 5.2905 8.32777C5.4422 8.47068 5.60796 8.61553 5.78479 8.7609C5.91347 8.86636 6.04847 8.97289 6.18733 9.07871C6.28003 9.14902 6.37466 9.21933 6.47122 9.28965C6.56778 9.35996 6.66563 9.42898 6.76477 9.49672C7.21143 9.80627 7.68341 10.1035 8.14624 10.3702C8.31429 10.467 8.4821 10.5607 8.64968 10.6514C8.81726 10.7421 8.98349 10.8289 9.14837 10.9118C9.53333 11.1051 9.91038 11.2795 10.2709 11.4291C10.4255 11.4933 10.5767 11.5528 10.7246 11.6077C10.9336 11.6854 11.1354 11.7537 11.3277 11.8114L11.347 11.8172C11.7993 11.9519 12.1806 12.0227 12.4805 12.0281H12.5111C12.8915 12.0281 13.1492 11.916 13.2771 11.6942C13.4369 11.4196 13.3488 11.0557 13.0159 10.6131Z" fill="#BD6D01"/>
</g>
<defs>
<linearGradient id="paint0_linear" x1="14.5161" y1="-1.16129" x2="3.62903" y2="18.2903" gradientUnits="userSpaceOnUse">
<stop stop-color="#FFA825"/>
<stop offset="1" stop-color="#FFDC63"/>
</linearGradient>
<linearGradient id="paint1_linear" x1="13.9355" y1="1.74193" x2="3.19353" y2="16.5484" gradientUnits="userSpaceOnUse">
<stop stop-color="#FFA825"/>
<stop offset="1" stop-color="#FFDC63"/>
</linearGradient>
<clipPath id="clip0">
<rect width="9" height="9" fill="white" transform="translate(4.35483 4.64516)"/>
</clipPath>
</defs>
</svg>
